<?xml version="1.0" encoding="utf-8"?>
<!-- Generator: Adobe Illustrator 19.2.1, SVG Export Plug-In . SVG Version: 6.00 Build 0)  -->
<svg version="1.1" id="layer" xmlns="http://www.w3.org/2000/svg" xmlns:xlink="http://www.w3.org/1999/xlink" x="0px" y="0px"
	 viewBox="-50 0 752 652" style="enable-background:new 0 0 652 652;" xml:space="preserve">
<style type="text/css">
	.st0{fill:#FEDD00;}
	.st1{fill:#4885C5;}
	.st2{fill:#63A844;}
	.st3{fill:#E33527;}
	.st4{fill:#F58231;}
	.st5{fill:#010101;}
	.st6{fill:#FFFFFF;}
	.st7{fill:none;stroke:#939599;stroke-width:4.1474;stroke-miterlimit:10;}
</style>
<path class="st0" d="M243,526c-15.9,0-26.6-11.7-31.2-30.4c-2.8-12.7-3.2-26.2-3.2-39.3c0-24.1,1.4-55.6,10.6-71.2
	c6.7-11,17-15.2,25.1-15.2c17,0,25.9,13.8,29.4,29c3.5,15.2,4.2,41.8,4.2,52.8C278,486.4,272.7,526,243,526 M329.1,364.5
	c-15.4-24.1-41-42.2-81.9-42.8c-33.9-0.4-59.5,11.2-77.5,30.4L167,378h-15c-5.6,11.2-9.6,23.7-12.1,36.9
	c24.4,14,39.9,38.2,39.9,68.6c0,19.6-6.7,39.5-18.3,54.8c18.6,24.4,46.2,37.6,79.1,37.6c40.6,0,68-17.6,85.2-42.8
	c-13.2-20.3-20.8-47.3-20.8-79.9C305,419.5,312.7,388.1,329.1,364.5"/>
<path class="st1" d="M498.1,366c-0.5-0.8-1.1-1.6-1.6-2.4c-7.4-11.1-17.1-20.9-29.6-28.1c-13.6-7.8-30.3-12.6-51.1-12.9h-1.9
	c-39.3,0-67.1,16.3-84.8,41.9c15.8,24.7,20.9,55.7,20.9,80.9c0,30.2-7,62.8-24.2,87.9c18.4,28.3,47.9,43.7,83.4,43.7
	c23.5,0,42.5-5.9,57.8-15.7c10-6.4,18.3-14.5,25.1-23.8c1.2-1.6,2.3-3.2,3.4-4.8c-13-20.2-20.4-46.9-20.4-79.2
	C475,420.3,482.4,389.5,498.1,366 M411.5,526.9c-15.9,0-26.5-11.7-31.1-30.4c-2.9-12.8-3.2-26.2-3.2-39.3c0-24,1.4-55.6,10.6-71.2
	c6.8-10.9,17-15.2,25.1-15.2c17,0,25.9,13.8,29.4,29c3.6,15.2,4.2,41.8,4.2,52.7C446.6,487.3,441.3,526.9,411.5,526.9"/>
<path class="st2" d="M329.1,364.5c-16.4,23.6-24.1,55.1-24.1,88.8c0,32.7,7.6,59.6,20.8,79.9c17.2-25.1,24.2-57.7,24.2-87.9
	C349.9,420.1,344.8,389.1,329.1,364.5"/>
<path class="st3" d="M139.9,415c-14.8-8.5-32.9-13.2-52.9-13.2c-13.1,0-29,2.5-39.6,6.7c-2.5,1-5,2.5-7.4,3.9l3.5-34.4H152
	c4.8-9.7,10.7-18.4,17.7-25.9l2.6-24.7H-8.3l-13.4,131.7l60.6,7.5c4.2-6.4,9.9-15.6,29.7-15.6c25.1,0,37.2,15.9,37.2,37.9
	c0,19.1-10.3,37.9-36.1,37.9c-14.5,0-26.2-6.8-30.4-20.6c-1.8-5.7-1.8-11.7-1.8-17.7l-72.2,7.4c3.9,18.4,7.4,35.4,23,51.7
	c27.6,28,68,28,81,28c20.6,0,58.5-1.8,85-29c2.6-2.6,4.9-5.4,7.1-8.3c-15.8-20.8-25-49.9-25-85.9C136.4,439.5,137.6,426.9,139.9,415
	"/>
<path class="st4" d="M167,378l2.7-25.9c-7.1,7.5-13,16.3-17.7,25.9H167z"/>
<path class="st4" d="M139.9,415c-2.3,11.9-3.5,24.5-3.5,37.4c0,36,9.2,65.1,25,85.9c11.6-15.3,18.3-35.1,18.3-54.8
	C179.8,453.2,164.3,428.9,139.9,415"/>
<polygon class="st5" points="29.4,282.5 29.4,237.7 56.3,237.7 56.3,125.1 29.4,125.1 29.4,76.9 172.5,76.9 172.5,125.1 
	145.7,125.1 145.7,237.7 172.5,237.7 172.5,282.5 "/>
<path class="st5" d="M301.7,282.5v-44.8h20.8v-46.9c0-14.2-10.1-20.5-23-20.5c-16.5,0-28.9,12.1-28.9,28.6v38.9h21.4v44.8H180v-44.8
	h20.2v-67.6H180v-44.9h88.3v30.9c1.4-1.1,2.9-2.8,4-4.3c16.2-18.5,34.6-25.1,58.8-25.1c34.1,0,61.8,13.8,61.8,51.6v59.3H411v44.8
	H301.7z"/>
<path class="st5" d="M589.1,191.6l-60.4,6.7c-0.8-16.8-4.2-34.5-24.6-34.5c-26,0-28,21.6-28,42.4v0v0.4c0,20.7,2,42.4,28,42.4
	c13.6,0,25.6-7.8,25.6-24.4l2,0l58.2,0l-0.5,5.2c-9.9,48.9-54.1,56.6-85.9,56.6c-49.9,0-99-24.5-99-80.2v0.2
	c0-55.7,49.1-80.2,99-80.2C503.5,126.2,581.7,121.1,589.1,191.6"/>
<path class="st5" d="M635.8,257.8c0,14.1-11.4,25.4-25.5,25.4c-14.1,0-25.5-11.3-25.5-25.4c0-14.1,11.4-25.5,25.5-25.5
	C624.4,232.3,635.8,243.7,635.8,257.8"/>
<path class="st6" d="M582.9,322.6l-1.9,0c-39.2,0-67.1,16.3-84.8,41.9c-16.4,23.7-24.1,55.1-24.1,88.8c0,32.6,7.5,59.6,20.8,79.9
	c18.4,28.3,47.9,43.7,83.3,43.7c81.1,0,109.4-70.1,109.4-130.7C685.6,396.2,665.4,323.7,582.9,322.6 M578.7,526.9
	c-6.6,0-12.2-2-16.9-5.6c-6.7-5.2-11.5-13.8-14.3-24.9c-2.9-12.7-3.2-26.2-3.2-39.3c0-24.1,1.4-55.6,10.6-71.1
	c4.3-7,10-11.2,15.7-13.4c3.2-1.2,6.5-1.8,9.5-1.8c17,0,25.8,13.8,29.3,29c3.5,15.2,4.2,41.8,4.2,52.8
	C613.7,487.3,608.4,526.9,578.7,526.9"/>
<path class="st7" d="M582.9,322.6l-1.9,0c-39.2,0-67.1,16.3-84.8,41.9c-16.4,23.7-24.1,55.1-24.1,88.8c0,32.6,7.5,59.6,20.8,79.9
	c18.4,28.3,47.9,43.7,83.3,43.7c81.1,0,109.4-70.1,109.4-130.7C685.6,396.2,665.4,323.7,582.9,322.6z M578.7,526.9
	c-6.6,0-12.2-2-16.9-5.6c-6.7-5.2-11.5-13.8-14.3-24.9c-2.9-12.7-3.2-26.2-3.2-39.3c0-24.1,1.4-55.6,10.6-71.1
	c4.3-7,10-11.2,15.7-13.4c3.2-1.2,6.5-1.8,9.5-1.8c17,0,25.8,13.8,29.3,29c3.5,15.2,4.2,41.8,4.2,52.8
	C613.7,487.3,608.4,526.9,578.7,526.9z"/>
</svg>
